<mxfile host="app.diagrams.net" agent="Mozilla/5.0 (Windows NT 10.0; Win64; x64) AppleWebKit/537.36 (KHTML, like Gecko) Chrome/132.0.0.0 Safari/537.36 OPR/117.0.0.0" version="26.1.3">
  <diagram name="Página-1" id="tn5yl6HeL-grOOPM4eOT">
    <mxGraphModel dx="515" dy="1282" grid="1" gridSize="10" guides="1" tooltips="1" connect="1" arrows="1" fold="1" page="1" pageScale="1" pageWidth="850" pageHeight="1100" math="0" shadow="0">
      <root>
        <mxCell id="0" />
        <mxCell id="1" parent="0" />
        <mxCell id="7sBuwOVf_Sa9BMLALKuh-36" style="edgeStyle=orthogonalEdgeStyle;rounded=0;orthogonalLoop=1;jettySize=auto;html=1;entryX=1;entryY=0.5;entryDx=0;entryDy=0;endArrow=none;startFill=0;" edge="1" parent="1" source="7sBuwOVf_Sa9BMLALKuh-1" target="7sBuwOVf_Sa9BMLALKuh-24">
          <mxGeometry relative="1" as="geometry" />
        </mxCell>
        <mxCell id="7sBuwOVf_Sa9BMLALKuh-1" value="&lt;u&gt;ID de vehiculo asignado&lt;/u&gt;" style="ellipse;whiteSpace=wrap;html=1;align=center;fillColor=#60a917;fontColor=#ffffff;strokeColor=#2D7600;" vertex="1" parent="1">
          <mxGeometry x="800" y="160" width="100" height="40" as="geometry" />
        </mxCell>
        <mxCell id="7sBuwOVf_Sa9BMLALKuh-33" style="edgeStyle=orthogonalEdgeStyle;rounded=0;orthogonalLoop=1;jettySize=auto;html=1;exitX=1;exitY=0.5;exitDx=0;exitDy=0;entryX=0;entryY=0.5;entryDx=0;entryDy=0;endArrow=none;startFill=0;" edge="1" parent="1" source="7sBuwOVf_Sa9BMLALKuh-2" target="7sBuwOVf_Sa9BMLALKuh-25">
          <mxGeometry relative="1" as="geometry" />
        </mxCell>
        <mxCell id="7sBuwOVf_Sa9BMLALKuh-2" value="&lt;u&gt;ID Empresa tranportista&lt;/u&gt;" style="ellipse;whiteSpace=wrap;html=1;align=center;fillColor=#60a917;fontColor=#ffffff;strokeColor=#2D7600;" vertex="1" parent="1">
          <mxGeometry y="160" width="100" height="40" as="geometry" />
        </mxCell>
        <mxCell id="7sBuwOVf_Sa9BMLALKuh-3" value="Fecha inicio" style="ellipse;whiteSpace=wrap;html=1;align=center;" vertex="1" parent="1">
          <mxGeometry x="800" y="200" width="100" height="40" as="geometry" />
        </mxCell>
        <mxCell id="7sBuwOVf_Sa9BMLALKuh-4" value="Nombre" style="ellipse;whiteSpace=wrap;html=1;align=center;" vertex="1" parent="1">
          <mxGeometry y="200" width="100" height="40" as="geometry" />
        </mxCell>
        <mxCell id="7sBuwOVf_Sa9BMLALKuh-5" value="Fecha final" style="ellipse;whiteSpace=wrap;html=1;align=center;" vertex="1" parent="1">
          <mxGeometry x="800" y="240" width="100" height="40" as="geometry" />
        </mxCell>
        <mxCell id="7sBuwOVf_Sa9BMLALKuh-6" value="Fecha del registro" style="ellipse;whiteSpace=wrap;html=1;align=center;" vertex="1" parent="1">
          <mxGeometry y="240" width="100" height="40" as="geometry" />
        </mxCell>
        <mxCell id="7sBuwOVf_Sa9BMLALKuh-43" style="edgeStyle=orthogonalEdgeStyle;rounded=0;orthogonalLoop=1;jettySize=auto;html=1;exitX=0;exitY=0.5;exitDx=0;exitDy=0;entryX=1;entryY=0.5;entryDx=0;entryDy=0;endArrow=none;startFill=0;" edge="1" parent="1" source="7sBuwOVf_Sa9BMLALKuh-7" target="7sBuwOVf_Sa9BMLALKuh-22">
          <mxGeometry relative="1" as="geometry" />
        </mxCell>
        <mxCell id="7sBuwOVf_Sa9BMLALKuh-7" value="&lt;u&gt;ID Vehiculo&lt;/u&gt;" style="ellipse;whiteSpace=wrap;html=1;align=center;fillColor=#60a917;fontColor=#ffffff;strokeColor=#2D7600;" vertex="1" parent="1">
          <mxGeometry x="800" y="420" width="100" height="40" as="geometry" />
        </mxCell>
        <mxCell id="7sBuwOVf_Sa9BMLALKuh-8" value="Telfono" style="ellipse;whiteSpace=wrap;html=1;align=center;" vertex="1" parent="1">
          <mxGeometry y="280" width="100" height="40" as="geometry" />
        </mxCell>
        <mxCell id="7sBuwOVf_Sa9BMLALKuh-58" value="" style="edgeStyle=orthogonalEdgeStyle;rounded=0;orthogonalLoop=1;jettySize=auto;html=1;endArrow=none;startFill=0;" edge="1" parent="1" source="7sBuwOVf_Sa9BMLALKuh-10" target="7sBuwOVf_Sa9BMLALKuh-23">
          <mxGeometry relative="1" as="geometry" />
        </mxCell>
        <mxCell id="7sBuwOVf_Sa9BMLALKuh-10" value="&lt;u&gt;ID GPS&lt;/u&gt;" style="ellipse;whiteSpace=wrap;html=1;align=center;fillColor=#60a917;fontColor=#ffffff;strokeColor=#2D7600;" vertex="1" parent="1">
          <mxGeometry x="800" y="1120" width="100" height="40" as="geometry" />
        </mxCell>
        <mxCell id="7sBuwOVf_Sa9BMLALKuh-12" value="Estado" style="ellipse;whiteSpace=wrap;html=1;align=center;" vertex="1" parent="1">
          <mxGeometry x="800" y="1280" width="100" height="40" as="geometry" />
        </mxCell>
        <mxCell id="7sBuwOVf_Sa9BMLALKuh-15" value="Capacidad" style="ellipse;whiteSpace=wrap;html=1;align=center;" vertex="1" parent="1">
          <mxGeometry x="800" y="580" width="100" height="40" as="geometry" />
        </mxCell>
        <mxCell id="7sBuwOVf_Sa9BMLALKuh-17" value="Año de Fabricacion" style="ellipse;whiteSpace=wrap;html=1;align=center;" vertex="1" parent="1">
          <mxGeometry x="800" y="620" width="100" height="40" as="geometry" />
        </mxCell>
        <mxCell id="7sBuwOVf_Sa9BMLALKuh-52" style="edgeStyle=orthogonalEdgeStyle;rounded=0;orthogonalLoop=1;jettySize=auto;html=1;exitX=0;exitY=0.5;exitDx=0;exitDy=0;entryX=1;entryY=0.5;entryDx=0;entryDy=0;endArrow=none;startFill=0;" edge="1" parent="1" source="7sBuwOVf_Sa9BMLALKuh-18" target="7sBuwOVf_Sa9BMLALKuh-51">
          <mxGeometry relative="1" as="geometry" />
        </mxCell>
        <mxCell id="7sBuwOVf_Sa9BMLALKuh-18" value="&lt;u&gt;ID Instalacion&lt;/u&gt;" style="ellipse;whiteSpace=wrap;html=1;align=center;fillColor=#60a917;fontColor=#ffffff;strokeColor=#2D7600;" vertex="1" parent="1">
          <mxGeometry x="790" y="820" width="100" height="40" as="geometry" />
        </mxCell>
        <mxCell id="7sBuwOVf_Sa9BMLALKuh-19" value="Fecha de desinstalacion" style="ellipse;whiteSpace=wrap;html=1;align=center;" vertex="1" parent="1">
          <mxGeometry x="790" y="900" width="100" height="40" as="geometry" />
        </mxCell>
        <mxCell id="7sBuwOVf_Sa9BMLALKuh-20" value="Fecha de instalacion" style="ellipse;whiteSpace=wrap;html=1;align=center;" vertex="1" parent="1">
          <mxGeometry x="790" y="860" width="100" height="40" as="geometry" />
        </mxCell>
        <mxCell id="7sBuwOVf_Sa9BMLALKuh-48" style="edgeStyle=orthogonalEdgeStyle;rounded=0;orthogonalLoop=1;jettySize=auto;html=1;exitX=0.5;exitY=1;exitDx=0;exitDy=0;entryX=0.5;entryY=0;entryDx=0;entryDy=0;endArrow=none;startFill=0;" edge="1" parent="1" source="7sBuwOVf_Sa9BMLALKuh-22" target="7sBuwOVf_Sa9BMLALKuh-27">
          <mxGeometry relative="1" as="geometry" />
        </mxCell>
        <mxCell id="7sBuwOVf_Sa9BMLALKuh-22" value="Vehiculo" style="rounded=1;arcSize=10;whiteSpace=wrap;html=1;align=center;fillColor=#1ba1e2;fontColor=#ffffff;strokeColor=#006EAF;" vertex="1" parent="1">
          <mxGeometry x="620" y="420" width="100" height="40" as="geometry" />
        </mxCell>
        <mxCell id="7sBuwOVf_Sa9BMLALKuh-23" value="GPS" style="rounded=1;arcSize=10;whiteSpace=wrap;html=1;align=center;fillColor=#1ba1e2;fontColor=#ffffff;strokeColor=#006EAF;" vertex="1" parent="1">
          <mxGeometry x="620" y="1120" width="100" height="40" as="geometry" />
        </mxCell>
        <mxCell id="7sBuwOVf_Sa9BMLALKuh-38" style="edgeStyle=orthogonalEdgeStyle;rounded=0;orthogonalLoop=1;jettySize=auto;html=1;exitX=0.5;exitY=1;exitDx=0;exitDy=0;entryX=0.5;entryY=0;entryDx=0;entryDy=0;endArrow=none;startFill=0;" edge="1" parent="1" source="7sBuwOVf_Sa9BMLALKuh-24" target="7sBuwOVf_Sa9BMLALKuh-28">
          <mxGeometry relative="1" as="geometry" />
        </mxCell>
        <mxCell id="7sBuwOVf_Sa9BMLALKuh-24" value="Vehiculo asignado" style="rounded=1;arcSize=10;whiteSpace=wrap;html=1;align=center;fillColor=#1ba1e2;fontColor=#ffffff;strokeColor=#006EAF;" vertex="1" parent="1">
          <mxGeometry x="620" y="160" width="100" height="40" as="geometry" />
        </mxCell>
        <mxCell id="7sBuwOVf_Sa9BMLALKuh-34" style="edgeStyle=orthogonalEdgeStyle;rounded=0;orthogonalLoop=1;jettySize=auto;html=1;entryX=0;entryY=0.5;entryDx=0;entryDy=0;endArrow=none;startFill=0;" edge="1" parent="1" source="7sBuwOVf_Sa9BMLALKuh-25" target="7sBuwOVf_Sa9BMLALKuh-26">
          <mxGeometry relative="1" as="geometry" />
        </mxCell>
        <mxCell id="7sBuwOVf_Sa9BMLALKuh-25" value="Empresa tansportista" style="rounded=1;arcSize=10;whiteSpace=wrap;html=1;align=center;fillColor=#1ba1e2;fontColor=#ffffff;strokeColor=#006EAF;" vertex="1" parent="1">
          <mxGeometry x="160" y="160" width="100" height="40" as="geometry" />
        </mxCell>
        <mxCell id="7sBuwOVf_Sa9BMLALKuh-35" style="edgeStyle=orthogonalEdgeStyle;rounded=0;orthogonalLoop=1;jettySize=auto;html=1;entryX=0;entryY=0.5;entryDx=0;entryDy=0;endArrow=none;startFill=0;" edge="1" parent="1" source="7sBuwOVf_Sa9BMLALKuh-26" target="7sBuwOVf_Sa9BMLALKuh-24">
          <mxGeometry relative="1" as="geometry" />
        </mxCell>
        <mxCell id="7sBuwOVf_Sa9BMLALKuh-26" value="Tiene" style="shape=rhombus;perimeter=rhombusPerimeter;whiteSpace=wrap;html=1;align=center;fillColor=#a20025;fontColor=#ffffff;strokeColor=#6F0000;" vertex="1" parent="1">
          <mxGeometry x="390" y="150" width="120" height="60" as="geometry" />
        </mxCell>
        <mxCell id="7sBuwOVf_Sa9BMLALKuh-50" value="" style="edgeStyle=orthogonalEdgeStyle;rounded=0;orthogonalLoop=1;jettySize=auto;html=1;endArrow=none;startFill=0;" edge="1" parent="1" source="7sBuwOVf_Sa9BMLALKuh-27">
          <mxGeometry relative="1" as="geometry">
            <mxPoint x="670" y="820" as="targetPoint" />
          </mxGeometry>
        </mxCell>
        <mxCell id="7sBuwOVf_Sa9BMLALKuh-27" value="Posee" style="shape=rhombus;perimeter=rhombusPerimeter;whiteSpace=wrap;html=1;align=center;fillColor=#a20025;fontColor=#ffffff;strokeColor=#6F0000;" vertex="1" parent="1">
          <mxGeometry x="610" y="610" width="120" height="60" as="geometry" />
        </mxCell>
        <mxCell id="7sBuwOVf_Sa9BMLALKuh-40" style="edgeStyle=orthogonalEdgeStyle;rounded=0;orthogonalLoop=1;jettySize=auto;html=1;exitX=0.5;exitY=1;exitDx=0;exitDy=0;entryX=0.5;entryY=0;entryDx=0;entryDy=0;endArrow=none;startFill=0;" edge="1" parent="1" source="7sBuwOVf_Sa9BMLALKuh-28" target="7sBuwOVf_Sa9BMLALKuh-22">
          <mxGeometry relative="1" as="geometry" />
        </mxCell>
        <mxCell id="7sBuwOVf_Sa9BMLALKuh-28" value="Relationship" style="shape=rhombus;perimeter=rhombusPerimeter;whiteSpace=wrap;html=1;align=center;" vertex="1" parent="1">
          <mxGeometry x="610" y="280" width="120" height="60" as="geometry" />
        </mxCell>
        <mxCell id="7sBuwOVf_Sa9BMLALKuh-39" value="Ruta" style="ellipse;whiteSpace=wrap;html=1;align=center;" vertex="1" parent="1">
          <mxGeometry x="800" y="280" width="100" height="40" as="geometry" />
        </mxCell>
        <mxCell id="7sBuwOVf_Sa9BMLALKuh-41" value="N:1" style="text;html=1;align=center;verticalAlign=middle;resizable=0;points=[];autosize=1;strokeColor=none;fillColor=none;" vertex="1" parent="1">
          <mxGeometry x="730" y="298" width="40" height="30" as="geometry" />
        </mxCell>
        <mxCell id="7sBuwOVf_Sa9BMLALKuh-42" value="1:N" style="text;html=1;align=center;verticalAlign=middle;resizable=0;points=[];autosize=1;strokeColor=none;fillColor=none;" vertex="1" parent="1">
          <mxGeometry x="430" y="108" width="40" height="30" as="geometry" />
        </mxCell>
        <mxCell id="7sBuwOVf_Sa9BMLALKuh-44" value="&lt;span style=&quot;border-bottom: 1px dotted&quot;&gt;Num Placa&lt;/span&gt;" style="ellipse;whiteSpace=wrap;html=1;align=center;" vertex="1" parent="1">
          <mxGeometry x="800" y="460" width="100" height="40" as="geometry" />
        </mxCell>
        <mxCell id="7sBuwOVf_Sa9BMLALKuh-45" value="Marca" style="ellipse;shape=doubleEllipse;margin=3;whiteSpace=wrap;html=1;align=center;" vertex="1" parent="1">
          <mxGeometry x="800" y="500" width="100" height="40" as="geometry" />
        </mxCell>
        <mxCell id="7sBuwOVf_Sa9BMLALKuh-46" value="Modelo" style="ellipse;shape=doubleEllipse;margin=3;whiteSpace=wrap;html=1;align=center;" vertex="1" parent="1">
          <mxGeometry x="800" y="540" width="100" height="40" as="geometry" />
        </mxCell>
        <mxCell id="7sBuwOVf_Sa9BMLALKuh-57" style="edgeStyle=orthogonalEdgeStyle;rounded=0;orthogonalLoop=1;jettySize=auto;html=1;exitX=0.5;exitY=1;exitDx=0;exitDy=0;entryX=0.5;entryY=0;entryDx=0;entryDy=0;endArrow=none;startFill=0;" edge="1" parent="1" source="7sBuwOVf_Sa9BMLALKuh-51" target="7sBuwOVf_Sa9BMLALKuh-56">
          <mxGeometry relative="1" as="geometry" />
        </mxCell>
        <mxCell id="7sBuwOVf_Sa9BMLALKuh-51" value="Intalacion" style="rounded=1;arcSize=10;whiteSpace=wrap;html=1;align=center;fillColor=#1ba1e2;fontColor=#ffffff;strokeColor=#006EAF;" vertex="1" parent="1">
          <mxGeometry x="620" y="820" width="100" height="40" as="geometry" />
        </mxCell>
        <mxCell id="7sBuwOVf_Sa9BMLALKuh-53" value="1:N" style="text;html=1;align=center;verticalAlign=middle;resizable=0;points=[];autosize=1;strokeColor=none;fillColor=none;" vertex="1" parent="1">
          <mxGeometry x="735" y="625" width="40" height="30" as="geometry" />
        </mxCell>
        <mxCell id="7sBuwOVf_Sa9BMLALKuh-55" value="Vehiculo instalado" style="ellipse;shape=doubleEllipse;margin=3;whiteSpace=wrap;html=1;align=center;" vertex="1" parent="1">
          <mxGeometry x="790" y="940" width="100" height="40" as="geometry" />
        </mxCell>
        <mxCell id="7sBuwOVf_Sa9BMLALKuh-59" style="edgeStyle=orthogonalEdgeStyle;rounded=0;orthogonalLoop=1;jettySize=auto;html=1;exitX=0.5;exitY=1;exitDx=0;exitDy=0;entryX=0.5;entryY=0;entryDx=0;entryDy=0;endArrow=none;startFill=0;" edge="1" parent="1" source="7sBuwOVf_Sa9BMLALKuh-56" target="7sBuwOVf_Sa9BMLALKuh-23">
          <mxGeometry relative="1" as="geometry" />
        </mxCell>
        <mxCell id="7sBuwOVf_Sa9BMLALKuh-56" value="Relationship" style="shape=rhombus;perimeter=rhombusPerimeter;whiteSpace=wrap;html=1;align=center;fillColor=#a20025;fontColor=#ffffff;strokeColor=#6F0000;" vertex="1" parent="1">
          <mxGeometry x="610" y="960" width="120" height="60" as="geometry" />
        </mxCell>
        <mxCell id="7sBuwOVf_Sa9BMLALKuh-63" value="&lt;span style=&quot;border-bottom: 1px dotted&quot;&gt;Num Serie&lt;/span&gt;" style="ellipse;whiteSpace=wrap;html=1;align=center;" vertex="1" parent="1">
          <mxGeometry x="800" y="1160" width="100" height="40" as="geometry" />
        </mxCell>
        <mxCell id="7sBuwOVf_Sa9BMLALKuh-64" value="Marca" style="ellipse;shape=doubleEllipse;margin=3;whiteSpace=wrap;html=1;align=center;" vertex="1" parent="1">
          <mxGeometry x="800" y="1200" width="100" height="40" as="geometry" />
        </mxCell>
        <mxCell id="7sBuwOVf_Sa9BMLALKuh-65" value="Modelo" style="ellipse;shape=doubleEllipse;margin=3;whiteSpace=wrap;html=1;align=center;" vertex="1" parent="1">
          <mxGeometry x="800" y="1240" width="100" height="40" as="geometry" />
        </mxCell>
        <mxCell id="7sBuwOVf_Sa9BMLALKuh-66" value="N:1" style="text;html=1;align=center;verticalAlign=middle;resizable=0;points=[];autosize=1;strokeColor=none;fillColor=none;" vertex="1" parent="1">
          <mxGeometry x="735" y="975" width="40" height="30" as="geometry" />
        </mxCell>
      </root>
    </mxGraphModel>
  </diagram>
</mxfile>
